<svg width="110" height="45" viewBox="0 0 110 45" fill="none" xmlns="http://www.w3.org/2000/svg">
<path d="M3 26.5C3 17.9396 9.93959 11 18.5 11H84.5C93.0604 11 100 17.9396 100 26.5V26.5C100 35.0604 93.0604 42 84.5 42H18.5C9.93958 42 3 35.0604 3 26.5V26.5Z" fill="#130B43"/>
<g clip-path="url(#clip0_0_1)">
<path d="M27.5025 19.75H26.4975C25.575 21.0737 23.46 22 21 22V25.7747C21.0001 27.2674 21.4991 28.7171 22.4178 29.8935C23.3364 31.07 24.6219 31.9056 26.07 32.2675L27 32.5L27.93 32.2675C29.3781 31.9056 30.6636 31.07 31.5822 29.8935C32.5009 28.7171 32.9999 27.2674 33 25.7747V22C30.54 22 28.4288 21.0737 27.5025 19.75Z" stroke="#E2CB2D" stroke-width="2" stroke-linecap="round" stroke-linejoin="round"/>
<path d="M26.1312 25.6005L26.4304 25.5598L26.5338 25.2762L26.8575 24.388L27.2115 25.2626L27.3246 25.5419L27.6243 25.5724L28.8982 25.7023L28.1002 26.3867L27.8722 26.5822L27.9378 26.8754L28.1748 27.9353L27.2074 27.2387L26.904 27.0203L26.6086 27.2495L25.6671 27.9805L25.8656 26.9115L25.9203 26.6166L25.6859 26.4295L24.863 25.7726L26.1312 25.6005ZM27.0749 23.7912C27.0741 23.7937 27.0731 23.7962 27.0722 23.7987L26.8499 23.7177L26.8457 23.7161L26.8432 23.7152L26.8426 23.715L26.8398 23.714L26.6025 23.6275L26.8456 23.7117L26.8484 23.7127L27.0749 23.7912ZM26.6212 23.8045C26.6207 23.8033 26.6203 23.8022 26.6199 23.8011L26.6198 23.8011L26.6212 23.8045Z" stroke="#E2CB2D"/>
<path d="M15.75 22H18.75" stroke="#E2CB2D" stroke-width="2" stroke-linecap="round" stroke-linejoin="round"/>
<path d="M16.5 24.25H18.75" stroke="#E2CB2D" stroke-width="2" stroke-linecap="round" stroke-linejoin="round"/>
<path d="M17.25 26.5H18.75" stroke="#E2CB2D" stroke-width="2" stroke-linecap="round" stroke-linejoin="round"/>
<path d="M18 28.75H19.5" stroke="#E2CB2D" stroke-width="2" stroke-linecap="round" stroke-linejoin="round"/>
<path d="M38.25 22H35.25" stroke="#E2CB2D" stroke-width="2" stroke-linecap="round" stroke-linejoin="round"/>
<path d="M37.5 24.25H35.25" stroke="#E2CB2D" stroke-width="2" stroke-linecap="round" stroke-linejoin="round"/>
<path d="M36.75 26.5H35.25" stroke="#E2CB2D" stroke-width="2" stroke-linecap="round" stroke-linejoin="round"/>
<path d="M36 28.75H34.5" stroke="#E2CB2D" stroke-width="2" stroke-linecap="round" stroke-linejoin="round"/>
</g>
<path d="M47.88 23.408C47.9333 22.3413 48.3067 21.52 49 20.944C49.704 20.3573 50.6267 20.064 51.768 20.064C52.5467 20.064 53.2133 20.2027 53.768 20.48C54.3227 20.7467 54.7387 21.1147 55.016 21.584C55.304 22.0427 55.448 22.5653 55.448 23.152C55.448 23.824 55.272 24.3947 54.92 24.864C54.5787 25.3227 54.168 25.632 53.688 25.792V25.856C54.3067 26.048 54.7867 26.3893 55.128 26.88C55.48 27.3707 55.656 28 55.656 28.768C55.656 29.408 55.5067 29.9787 55.208 30.48C54.92 30.9813 54.488 31.376 53.912 31.664C53.3467 31.9413 52.664 32.08 51.864 32.08C50.6587 32.08 49.6773 31.776 48.92 31.168C48.1627 30.56 47.7627 29.664 47.72 28.48H49.896C49.9173 29.0027 50.0933 29.424 50.424 29.744C50.7653 30.0533 51.2293 30.208 51.816 30.208C52.36 30.208 52.776 30.0587 53.064 29.76C53.3627 29.4507 53.512 29.056 53.512 28.576C53.512 27.936 53.3093 27.4773 52.904 27.2C52.4987 26.9227 51.8693 26.784 51.016 26.784H50.552V24.944H51.016C52.5307 24.944 53.288 24.4373 53.288 23.424C53.288 22.9653 53.1493 22.608 52.872 22.352C52.6053 22.096 52.216 21.968 51.704 21.968C51.2027 21.968 50.8133 22.1067 50.536 22.384C50.2693 22.6507 50.1147 22.992 50.072 23.408H47.88ZM57.4261 26.016C57.4261 24.1707 57.7568 22.7253 58.4181 21.68C59.0901 20.6347 60.1995 20.112 61.7461 20.112C63.2928 20.112 64.3968 20.6347 65.0581 21.68C65.7301 22.7253 66.0661 24.1707 66.0661 26.016C66.0661 27.872 65.7301 29.328 65.0581 30.384C64.3968 31.44 63.2928 31.968 61.7461 31.968C60.1995 31.968 59.0901 31.44 58.4181 30.384C57.7568 29.328 57.4261 27.872 57.4261 26.016ZM63.8581 26.016C63.8581 25.2267 63.8048 24.5653 63.6981 24.032C63.6021 23.488 63.3995 23.0453 63.0901 22.704C62.7915 22.3627 62.3435 22.192 61.7461 22.192C61.1488 22.192 60.6955 22.3627 60.3861 22.704C60.0875 23.0453 59.8848 23.488 59.7781 24.032C59.6821 24.5653 59.6341 25.2267 59.6341 26.016C59.6341 26.8267 59.6821 27.5093 59.7781 28.064C59.8741 28.608 60.0768 29.0507 60.3861 29.392C60.6955 29.7227 61.1488 29.888 61.7461 29.888C62.3435 29.888 62.7968 29.7227 63.1061 29.392C63.4155 29.0507 63.6181 28.608 63.7141 28.064C63.8101 27.5093 63.8581 26.8267 63.8581 26.016ZM67.7699 26.016C67.7699 24.1707 68.1005 22.7253 68.7619 21.68C69.4339 20.6347 70.5432 20.112 72.0899 20.112C73.6365 20.112 74.7405 20.6347 75.4019 21.68C76.0739 22.7253 76.4099 24.1707 76.4099 26.016C76.4099 27.872 76.0739 29.328 75.4019 30.384C74.7405 31.44 73.6365 31.968 72.0899 31.968C70.5432 31.968 69.4339 31.44 68.7619 30.384C68.1005 29.328 67.7699 27.872 67.7699 26.016ZM74.2019 26.016C74.2019 25.2267 74.1485 24.5653 74.0419 24.032C73.9459 23.488 73.7432 23.0453 73.4339 22.704C73.1352 22.3627 72.6872 22.192 72.0899 22.192C71.4925 22.192 71.0392 22.3627 70.7299 22.704C70.4312 23.0453 70.2285 23.488 70.1219 24.032C70.0259 24.5653 69.9779 25.2267 69.9779 26.016C69.9779 26.8267 70.0259 27.5093 70.1219 28.064C70.2179 28.608 70.4205 29.0507 70.7299 29.392C71.0392 29.7227 71.4925 29.888 72.0899 29.888C72.6872 29.888 73.1405 29.7227 73.4499 29.392C73.7592 29.0507 73.9619 28.608 74.0579 28.064C74.1539 27.5093 74.2019 26.8267 74.2019 26.016ZM84.6736 32L80.6096 27.024V32H78.3696V20.832H80.6096V25.84L84.6736 20.832H87.3776L82.7696 26.368L87.5056 32H84.6736Z" fill="#FBFCFE"/>
<path d="M18.5 14H84.5V8H18.5V14ZM84.5 39H18.5V45H84.5V39ZM18.5 39C11.5964 39 6 33.4036 6 26.5H0C0 36.7173 8.28273 45 18.5 45V39ZM97 26.5C97 33.4036 91.4036 39 84.5 39V45C94.7173 45 103 36.7173 103 26.5H97ZM84.5 14C91.4036 14 97 19.5964 97 26.5H103C103 16.2827 94.7173 8 84.5 8V14ZM18.5 8C8.28273 8 0 16.2827 0 26.5H6C6 19.5964 11.5964 14 18.5 14V8Z" fill="url(#paint0_linear_0_1)"/>
<rect x="90.5" y="1.5" width="18" height="18" rx="9" fill="#D85050"/>
<rect x="90.5" y="1.5" width="18" height="18" rx="9" stroke="white" stroke-width="3"/>
<defs>
<linearGradient id="paint0_linear_0_1" x1="51.5" y1="11" x2="51.5" y2="42" gradientUnits="userSpaceOnUse">
<stop stop-color="#CC00FF"/>
<stop offset="1" stop-color="#3300FF"/>
</linearGradient>
<clipPath id="clip0_0_1">
<rect width="24" height="24" fill="white" transform="translate(15 14.5)"/>
</clipPath>
</defs>
</svg>
